#!OML:ASF H:\Martial Arts Walks\Project 1\Capture day 1\Session 1\male.ASF
:FULLY-SPECIFIED
:DEGREES
4065
root -0.891341 14.7669 -8.09408 -352.424 -12.0502 -366.216
lowerback 8.09155 2.42082 1.82361
upperback -3.08687 3.64399 2.67089
thorax -7.86541 1.76431 1.25442
lowerneck -3.89 -1.02065 -3.38319
upperneck 4.82651 -1.33919 3.2797
head 2.25356 -0.64108 1.59219
rclavicle -6.64686e-015 -3.39922e-014
rhumerus 5.41443 56.0688 -72.8947
rradius 26.8073
rwrist 37.5091
rhand 10.6505 -394.531
rfingers 7.12502
rthumb 35.7431 1019.09
lclavicle -6.64686e-015 -3.39922e-014
lhumerus -150.405 192.229 -83.4863
lradius 80.2042
lwrist 28.2042
lhand -23.3765 406.585
lfingers 7.12502
lthumb 3.07946 796.543
rfemur -1.76625 -4.51709 20.5269
rtibia 63.8883
rfoot 2.11921 -24.0166
rtoes 28.1392
lfemur -58.2645 15.9705 -21.9078
ltibia 72.0279
lfoot -16.1475 22.2458
ltoes 11.7217
4066
root -0.862211 14.7834 -7.98553 -352.954 -11.3837 -365.472
lowerback 8.60893 2.37572 1.2166
upperback -2.96655 3.52138 2.58979
thorax -8.06534 1.73064 1.50752
lowerneck -3.75334 -1.2002 -3.5856
upperneck 4.60237 -1.57428 3.41589
head 2.16885 -0.759214 1.66373
rclavicle -9.3553e-015 -1.15295e-014
rhumerus 6.16782 57.3789 -71.3483
rradius 26.2729
rwrist 36.4732
rhand 13.9984 -394.519
rfingers 7.12502
rthumb 38.908 1019.93
lclavicle -9.3553e-015 -1.15295e-014
lhumerus -149.906 192.88 -84.2068
lradius 81.224
lwrist 25.0803
lhand -23.1894 406.063
lfingers 7.12502
lthumb 3.26022 796.018
rfemur -3.70063 -4.2723 20.1917
rtibia 67.7635
rfoot 3.48963 -21.8512
rtoes 26.7187
lfemur -57.1511 14.85 -22.535
ltibia 71.6408
lfoot -16.3129 22.4243
ltoes 11.9054
4067
root -0.839436 14.7974 -7.88032 -353.419 -10.7391 -364.675
lowerback 8.95228 2.35272 0.467483
upperback -2.80202 3.39884 2.50814
thorax -8.12332 1.70558 1.84938
lowerneck -3.60209 -1.40494 -3.76826
upperneck 4.34226 -1.8419 3.50758
head 2.07109 -0.894431 1.71658
rclavicle -7.54139e-015 4.57205e-015
rhumerus 7.29173 58.7749 -69.4569
rradius 25.7777
rwrist 35.0006
rhand 16.5925 -394.58
rfingers 7.12502
rthumb 41.3485 1020.62
lclavicle -7.54139e-015 4.57205e-015
lhumerus -149.28 193.46 -84.9757
lradius 82.3285
lwrist 22.1378
lhand -22.9217 405.461
lfingers 7.12502
lthumb 3.51874 795.411
rfemur -5.80601 -4.11539 19.8608
rtibia 71.5829
rfoot 3.37945 -19.3193
rtoes 23.3805
lfemur -56.1389 13.8626 -23.2654
ltibia 71.2653
lfoot -16.4824 22.4958
ltoes 12.176
4068
root -0.824575 14.8093 -7.77339 -353.885 -10.1777 -363.811
lowerback 9.26789 2.40549 -0.416245
upperback -2.63687 3.35342 2.39308
thorax -8.17195 1.72358 2.22167
lowerneck -3.27164 -1.61651 -3.93241
upperneck 3.93696 -2.12489 3.63608
head 1.89594 -1.03758 1.77809
rclavicle 2.45002e-014 1.98785e-016
rhumerus 8.3241 59.8907 -67.6555
rradius 25.304
rwrist 33.5898
rhand 18.9841 -394.534
rfingers 7.12502
rthumb 43.5876 1021.43
lclavicle 2.45002e-014 1.98785e-016
lhumerus -148.674 194.083 -85.6891
lradius 83.5626
lwrist 19.4562
lhand -23.0702 404.72
lfingers 7.12502
lthumb 3.37535 794.673
rfemur -7.99874 -3.99086 19.5184
rtibia 75.2466
rfoot 1.88897 -16.754
rtoes 18.5418
lfemur -55.12 13.0669 -24.0877
ltibia 70.8921
lfoot -16.5935 22.6089
ltoes 12.126
4069
root -0.805519 14.8162 -7.67285 -354.336 -9.61439 -362.905
lowerback 9.65621 2.41859 -1.29902
upperback -2.49501 3.2477 2.24928
thorax -8.28195 1.71109 2.57152
lowerneck -3.14558 -1.80947 -4.06017
upperneck 3.76076 -2.37936 3.68548
head 1.83015 -1.16623 1.80965
rclavicle -2.54693e-014 -1.35174e-014
rhumerus 9.65084 61.079 -65.7326
rradius 24.7428
rwrist 32.1922
rhand 21.013 -394.663
rfingers 7.12502
rthumb 45.4776 1022.03
lclavicle -2.54693e-014 -1.35174e-014
lhumerus -148.103 194.553 -86.4586
lradius 84.8766
lwrist 16.924
lhand -23.3656 404.706
lfingers 7.12502
lthumb 3.08999 794.663
rfemur -10.3396 -4.00484 19.1616
rtibia 78.7177
rfoot 0.0309963 -14.4827
rtoes 13.0925
lfemur -54.1592 12.2935 -24.9822
ltibia 70.5183
lfoot -16.5912 22.7727
ltoes 11.9992
4070
root -0.791268 14.8255 -7.56513 -354.847 -9.19668 -361.941
lowerback 10.07 2.4899 -2.29086
upperback -2.33858 3.19636 2.08664
thorax -8.3985 1.72985 2.95428
lowerneck -2.97403 -1.98011 -4.16396
upperneck 3.55195 -2.60554 3.71461
head 1.74415 -1.28117 1.83161
rclavicle 4.39811e-015 1.98785e-014
rhumerus 10.7497 61.8271 -64.0512
rradius 24.293
rwrist 31.357
rhand 23.3208 -394.572
rfingers 7.12502
rthumb 47.6152 1023.04
lclavicle 4.39811e-015 1.98785e-014
lhumerus -147.534 194.953 -87.2265
lradius 86.2817
lwrist 14.5357
lhand -23.999 404.731
lfingers 7.12502
lthumb 2.47833 794.696
rfemur -12.6625 -3.99957 18.7652
rtibia 81.8866
rfoot -1.89754 -12.7831
rtoes 8.44608
lfemur -53.0559 11.7139 -25.9232
ltibia 70.1394
lfoot -16.6839 22.9638
ltoes 11.7538
4071
root -0.775953 14.8315 -7.45366 -355.394 -8.83943 -361.03
lowerback 10.4668 2.60356 -3.15897
upperback -2.16487 3.20789 1.89761
thorax -8.48204 1.7712 3.22925
lowerneck -2.75999 -2.15252 -4.31639
upperneck 3.36537 -2.83787 3.82857
head 1.66169 -1.39862 1.8908
rclavicle 1.27719e-014 2.3059e-014
rhumerus 11.4319 62.0081 -62.8563
rradius 23.8201
rwrist 30.9373
rhand 25.1368 -394.538
rfingers 7.12502
rthumb 49.2868 1023.87
lclavicle 1.27719e-014 2.3059e-014
lhumerus -147.056 195.389 -87.9714
lradius 87.7793
lwrist 12.2188
lhand -24.7128 404.788
lfingers 7.12502
lthumb 1.78897 794.76
rfemur -14.9725 -4.0776 18.4271
rtibia 84.7416
rfoot -3.55446 -11.6254
rtoes 5.26681
lfemur -51.8959 11.2982 -26.8306
ltibia 69.7972
lfoot -16.8559 23.1194
ltoes 11.3499
4072
root -0.760913 14.8398 -7.33963 -355.948 -8.56038 -360.13
lowerback 10.8591 2.72298 -4.03709
upperback -1.96712 3.21909 1.71165
thorax -8.53823 1.81152 3.51367
lowerneck -2.70244 -2.30545 -4.38575
upperneck 3.2933 -3.03998 3.83057
head 1.63882 -1.50073 1.89893
rclavicle 1.09829e-014 8.34896e-015
rhumerus 12.1259 61.9575 -61.7848
rradius 23.3619
rwrist 30.5412
rhand 26.6621 -394.459
rfingers 7.12502
rthumb 50.6826 1024.68
lclavicle 1.09829e-014 8.34896e-015
lhumerus -146.58 195.71 -88.7391
lradius 89.3575
lwrist 9.93984
lhand -25.7274 405.204
lfingers 7.12502
lthumb 0.809052 795.182
rfemur -17.269 -4.19781 18.114
rtibia 87.2529
rfoot -4.56796 -10.9185
rtoes 3.34203
lfemur -50.7397 11.0099 -27.7391
ltibia 69.4866
lfoot -16.9999 23.3798
ltoes 10.7986
4073
root -0.744355 14.8427 -7.22249 -356.476 -8.29458 -359.363
lowerback 11.2085 2.85881 -4.72358
upperback -1.7992 3.27503 1.53136
thorax -8.59534 1.86408 3.68784
lowerneck -2.50145 -2.47846 -4.42912
upperneck 3.18409 -3.27513 3.8361
head 1.57968 -1.62022 1.90393
rclavicle -3.13086e-015 -1.03368e-014
rhumerus 12.2523 61.368 -61.3663
rradius 22.9147
rwrist 30.3419
rhand 27.1957 -394.504
rfingers 7.12502
rthumb 51.1691 1024.91
lclavicle -3.13086e-015 -1.03368e-014
lhumerus -146.246 196.042 -89.4488
lradius 91.0095
lwrist 7.66695
lhand -26.7667 405.491
lfingers 7.12502
lthumb -0.1948 795.471
rfemur -19.5959 -4.38011 17.9629
rtibia 89.4452
rfoot -5.2388 -10.5575
rtoes 2.14193
lfemur -49.6128 10.8439 -28.5403
ltibia 69.2703
lfoot -17.3267 23.5518
ltoes 10.3217
4074
root -0.725868 14.842 -7.1009 -356.954 -8.08282 -358.785
lowerback 11.4916 2.97319 -5.1759
upperback -1.60958 3.33956 1.40362
thorax -8.58031 1.9084 3.78661
lowerneck -2.48981 -2.61329 -4.54879
upperneck 3.19373 -3.45222 3.86212
head 1.59239 -1.70974 1.92957
rclavicle 2.8302e-014 -2.3059e-014
rhumerus 12.7782 60.9546 -60.5989
rradius 22.4948
rwrist 29.6603
rhand 27.5218 -394.619
rfingers 7.12502
rthumb 51.4658 1024.96
lclavicle 2.8302e-014 -2.3059e-014
lhumerus -145.947 196.233 -90.0887
lradius 92.7234
lwrist 5.46799
lhand -27.7218 405.586
lfingers 7.12502
lthumb -1.11726 795.563
rfemur -21.9958 -4.50771 18.0707
rtibia 91.3073
rfoot -5.69888 -10.6327
rtoes 1.2073
lfemur -48.5606 10.8275 -29.1774
ltibia 69.1607
lfoot -17.7934 23.6644
ltoes 9.99176
4075
root -0.707443 14.8408 -6.97839 -357.319 -7.81692 -358.391
lowerback 11.6698 3.04882 -5.42841
upperback -1.46165 3.38965 1.3327
thorax -8.53949 1.93789 3.83924
lowerneck -2.42598 -2.71991 -4.72921
upperneck 3.25109 -3.59355 3.91517
head 1.61217 -1.78233 1.97639
rclavicle -2.7482e-014 -2.78299e-015
rhumerus 12.7217 59.8763 -60.5188
rradius 22.052
rwrist 29.4623
rhand 27.6688 -394.684
rfingers 7.12502
rthumb 51.5994 1024.98
lclavicle -2.7482e-014 -2.78299e-015
lhumerus -145.732 196.364 -90.6668
lradius 94.5258
lwrist 3.41181
lhand -28.8748 406.448
lfingers 7.12502
lthumb -2.23077 796.416
rfemur -24.4431 -4.6327 18.3873
rtibia 92.8161
rfoot -6.32824 -11.0103
rtoes 0.677654
lfemur -47.653 10.8068 -29.6409
ltibia 69.1459
lfoot -18.3035 23.7899
ltoes 9.51322
4076
root -0.687119 14.8365 -6.85093 -357.612 -7.50262 -358.13
lowerback 11.7332 3.118 -5.48325
upperback -1.33075 3.46495 1.2505
thorax -8.44012 1.96893 3.7671
lowerneck -2.35531 -2.8514 -4.75428
upperneck 3.30901 -3.77254 3.91535
head 1.62745 -1.87276 1.97702
rclavicle 2.39039e-014 2.98177e-014
rhumerus 12.8156 58.9489 -60.3055
rradius 21.637
rwrist 28.6946
rhand 27.1954 -394.752
rfingers 7.12502
rthumb 51.1688 1024.66
lclavicle 2.39039e-014 2.98177e-014
lhumerus -145.624 196.584 -91.182
lradius 96.4462
lwrist 1.68426
lhand -30.0453 407.479
lfingers 7.12502
lthumb -3.36125 797.433
rfemur -26.9162 -4.79399 18.847
rtibia 93.9774
rfoot -7.19782 -11.714
rtoes -0.891461
lfemur -46.8301 10.8058 -29.9938
ltibia 69.2119
lfoot -18.9156 23.8563
ltoes 9.15985
4077
root -0.6687 14.8321 -6.7222 -357.836 -7.12183 -358.04
lowerback 11.7786 3.14593 -5.3685
upperback -1.24837 3.51463 1.21965
thorax -8.37226 1.98317 3.65933
lowerneck -2.28874 -2.97482 -4.81866
upperneck 3.43212 -3.94136 3.93586
head 1.66581 -1.9584 1.99156
rclavicle -1.73937e-015 2.3059e-014
rhumerus 12.657 57.6638 -60.4377
rradius 21.2098
rwrist 28.1173
rhand 26.7802 -394.961
rfingers 7.12502
rthumb 50.7904 1024.24
lclavicle -1.73937e-015 2.3059e-014
lhumerus -145.695 196.773 -91.5628
lradius 98.2847
lwrist -0.156258
lhand -31.1275 408.654
lfingers 7.12502
lthumb -4.40628 798.588
rfemur -29.4085 -4.93371 19.5016
rtibia 94.7863
rfoot -8.2562 -12.525
rtoes -2.92214
lfemur -46.0954 10.8079 -30.1623
ltibia 69.3288
lfoot -19.9895 23.7364
ltoes 9.87092
4078
root -0.652138 14.8271 -6.58928 -358.091 -6.68012 -357.939
lowerback 11.8224 3.16119 -5.2597
upperback -1.18928 3.54503 1.17188
thorax -8.32575 1.98905 3.54024
lowerneck -2.065 -3.11969 -4.93582
upperneck 3.53989 -4.14802 4.06346
head 1.67815 -2.0633 2.05168
rclavicle 1.83379e-014 2.0276e-014
rhumerus 11.875 55.4357 -61.3572
rradius 20.7615
rwrist 28.1628
rhand 26.498 -394.966
rfingers 7.12502
rthumb 50.5328 1024.1
lclavicle 1.83379e-014 2.0276e-014
lhumerus -145.892 196.967 -91.9361
lradius 100.054
lwrist -2.18228
lhand -32.9713 409.189
lfingers 7.12502
lthumb -6.18652 799.078
rfemur -31.7703 -5.06748 20.08
rtibia 95.257
rfoot -9.28334 -13.3683
rtoes -5.04495
lfemur -45.2947 10.8114 -30.3336
ltibia 69.4663
lfoot -20.2555 23.8711
ltoes 8.47465
4079
root -0.637197 14.8197 -6.45261 -358.398 -6.2082 -357.801
lowerback 12.0337 3.12701 -5.20128
upperback -1.18167 3.49284 1.13038
thorax -8.42611 1.96131 3.46475
lowerneck -2.08297 -3.17474 -4.90517
upperneck 3.79088 -4.22494 4.00126
head 1.76361 -2.10278 2.02312
rclavicle -2.72087e-014 -7.55382e-015
rhumerus 11.2449 53.4499 -62.1909
rradius 20.3385
rwrist 27.5635
rhand 25.3317 -395.183
rfingers 7.12502
rthumb 49.4655 1023.32
lclavicle -2.72087e-014 -7.55382e-015
lhumerus -146.301 197.055 -92.2612
lradius 102.109
lwrist -3.49053
lhand -33.8867 410.341
lfingers 7.12502
lthumb -7.07022 800.203
rfemur -34.0288 -5.13645 20.5318
rtibia 95.4283
rfoot -10.7514 -14.1193
rtoes -8.19621
lfemur -44.4286 10.8157 -30.5225
ltibia 69.614
lfoot -20.8951 23.9192
ltoes 7.94007
